<svg xmlns="http://www.w3.org/2000/svg" width="300" height="300" viewBox="0 0 300 300">
  <defs>
    <linearGradient id="g1" x1="0%" y1="0%" x2="100%" y2="0%">
      <stop offset="0%" stop-color="#4f8ef7"/>
      <stop offset="100%" stop-color="#a259ff"/>
    </linearGradient>
  </defs>
  <rect width="300" height="300" rx="24" fill="#070d1a"/>
  <rect x="0" y="0" width="300" height="4" rx="2" fill="url(#g1)"/>
  <rect x="20" y="20" width="260" height="260" rx="20" fill="none" stroke="#4f8ef7" stroke-width="0.8" opacity="0.3"/>
  <!-- Hexagon -->
  <polygon points="150,60 216,97 216,171 150,208 84,171 84,97" fill="#0d1528" stroke="#4f8ef7" stroke-width="2"/>
  <polygon points="150,76 200,103 200,157 150,184 100,157 100,103" fill="none" stroke="#4f8ef7" stroke-width="0.8" opacity="0.4"/>
  <!-- corner dots -->
  <circle cx="150" cy="60"  r="4" fill="#4f8ef7"/>
  <circle cx="216" cy="97"  r="4" fill="#a259ff"/>
  <circle cx="216" cy="171" r="4" fill="#4f8ef7"/>
  <circle cx="150" cy="208" r="4" fill="#a259ff"/>
  <circle cx="84"  cy="171" r="4" fill="#4f8ef7"/>
  <circle cx="84"  cy="97"  r="4" fill="#a259ff"/>
  <!-- A -->
  <text font-family="Poppins,Segoe UI,sans-serif" font-weight="800" font-size="72" fill="#4f8ef7" text-anchor="middle" dominant-baseline="central" x="150" y="136">A</text>
  <!-- Name -->
  <text font-family="Poppins,Segoe UI,sans-serif" font-weight="700" font-size="18" fill="#e8edf7" text-anchor="middle" letter-spacing="3" x="150" y="242">ABDURAXMON</text>
  <text font-family="Inter,Segoe UI,sans-serif" font-weight="600" font-size="11" fill="#4f8ef7" text-anchor="middle" letter-spacing="4" x="150" y="262">FRONTEND DEV</text>
</svg>
