<svg xmlns="http://www.w3.org/2000/svg" width="300" height="300" viewBox="0 0 300 300">
  <defs>
    <linearGradient id="g1" x1="0%" y1="0%" x2="100%" y2="0%">
      <stop offset="0%" stop-color="#a259ff"/>
      <stop offset="100%" stop-color="#4f8ef7"/>
    </linearGradient>
  </defs>
  <rect width="300" height="300" rx="24" fill="#070d1a"/>
  <rect x="0" y="0" width="300" height="4" rx="2" fill="url(#g1)"/>
  <rect x="20" y="20" width="260" height="260" rx="20" fill="none" stroke="#a259ff" stroke-width="0.8" opacity="0.3"/>
  <!-- Rings -->
  <circle cx="150" cy="145" r="88" fill="#0d1528" stroke="#a259ff" stroke-width="2"/>
  <circle cx="150" cy="145" r="68" fill="none" stroke="#a259ff" stroke-width="0.8" opacity="0.45"/>
  <circle cx="150" cy="145" r="46" fill="#070d1a" stroke="#4f8ef7" stroke-width="1.5"/>
  <!-- tick marks -->
  <g stroke="#a259ff" stroke-width="1.8" stroke-linecap="round" opacity="0.75">
    <line x1="150" y1="57"  x2="150" y2="70"/>
    <line x1="150" y1="220" x2="150" y2="233"/>
    <line x1="62"  y1="145" x2="75"  y2="145"/>
    <line x1="225" y1="145" x2="238" y2="145"/>
    <line x1="88"  y1="83"  x2="97"  y2="92"/>
    <line x1="203" y1="198" x2="212" y2="207"/>
    <line x1="212" y1="83"  x2="203" y2="92"/>
    <line x1="97"  y1="198" x2="88"  y2="207"/>
  </g>
  <!-- SH -->
  <text font-family="Poppins,Segoe UI,sans-serif" font-weight="800" font-size="30" fill="#a259ff" text-anchor="middle" dominant-baseline="central" x="150" y="147">SH</text>
  <!-- Name -->
  <text font-family="Poppins,Segoe UI,sans-serif" font-weight="700" font-size="21" fill="#e8edf7" text-anchor="middle" letter-spacing="3" x="150" y="254">SHOHRUX</text>
  <text font-family="Inter,Segoe UI,sans-serif" font-weight="600" font-size="11" fill="#a259ff" text-anchor="middle" letter-spacing="4" x="150" y="273">FRONTEND DEV</text>
</svg>
